Coordinates
version=1
nRows=4
nColumns=63
inDegrees=yes

Units are S.I. units (second, meters, Newtons, ...)
If the header above contains a line with 'inDegrees', this indicates whether rotational values are in degrees (yes) or radians (no).

endheader
time	pelvis_tilt	pelvis_list	pelvis_rotation	pelvis_tx	pelvis_ty	pelvis_tz	hip_flexion_r	hip_adduction_r	hip_rotation_r	knee_angle_r	knee_angle_r_beta	ankle_angle_r	subtalar_angle_r	mtp_angle_r	hip_flexion_l	hip_adduction_l	hip_rotation_l	knee_angle_l	knee_angle_l_beta	ankle_angle_l	subtalar_angle_l	mtp_angle_l	L5_S1_Flex_Ext	L5_S1_Lat_Bending	L5_S1_axial_rotation	L4_L5_Flex_Ext	L4_L5_Lat_Bending	L4_L5_axial_rotation	L3_L4_Flex_Ext	L3_L4_Lat_Bending	L3_L4_axial_rotation	L2_L3_Flex_Ext	L2_L3_Lat_Bending	L2_L3_axial_rotation	L1_L2_Flex_Ext	L1_L2_Lat_Bending	L1_L2_axial_rotation	L1_T12_Flex_Ext	L1_T12_Lat_Bending	L1_T12_axial_rotation	Abs_r3	Abs_r2	Abs_r1	Abs_t1	Abs_t2	neck_flexion	neck_bending	neck_rotation	arm_flex_r	arm_add_r	arm_rot_r	elbow_flex_r	pro_sup_r	wrist_flex_r	wrist_dev_r	arm_flex_l	arm_add_l	arm_rot_l	elbow_flex_l	pro_sup_l	wrist_flex_l	wrist_dev_l
      2.67647059	     -0.19842680	    -15.91895705	    101.53079709	      0.27156579	      0.92896619	      0.57425307	      9.87670861	      0.83746955	     -1.27086418	      3.80396070	      0.06639164	     16.39125237	    -11.83435940	      0.00000000	     16.90388524	     -1.24624951	      3.86483590	     13.04457681	      0.22767081	     24.90514247	     -0.88543086	      0.00000000	     -0.09958589	     -1.33995200	     -1.49484351	     -0.18494096	     -1.78213617	     -1.58827123	     -0.16360966	     -3.25795930	     -1.58827123	     -0.11381671	     -3.25795930	     -1.30798807	     -0.09247546	     -2.73243013	     -1.21456035	     -0.05690338	     -2.07558566	     -1.12113263	     -0.71133205	    -15.15780507	     -8.31387116	      0.00000000	      0.00000000	      6.71510728	     -4.95050856	     -3.90789449	    -24.51479619	    -51.06427747	    -81.07053095	     34.33357553	     55.67140872	    -16.50236109	     16.37360237	     -9.31068357	    -68.90537189	    -16.67734531	     32.76789434	     84.53209068	    -51.68459080	      4.10492868
      2.70588235	      0.13248549	    -15.86587053	    102.10684074	      0.27132645	      0.92932204	      0.57324872	      9.95755153	      1.09071905	     -2.02021718	      4.25307471	      0.07423016	     16.56111278	    -11.61449716	      0.00000000	     16.89163570	     -1.44570792	      4.40474120	     12.95737984	      0.22614894	     24.50187284	     -0.95645723	      0.00000000	     -0.06311547	     -1.33634673	     -1.42520197	     -0.11721174	     -1.77734115	     -1.51427709	     -0.10369241	     -3.24919343	     -1.51427709	     -0.07213467	     -3.24919343	     -1.24705172	     -0.05860903	     -2.72507824	     -1.15797660	     -0.03606418	     -2.07000108	     -1.06890148	     -0.45082751	    -15.11702144	     -7.92654580	      0.00000000	      0.00000000	      5.58366537	     -4.23608197	     -4.39872446	    -23.71165117	    -50.87809244	    -80.44741300	     34.99137877	     41.10598926	    -19.70671300	     13.49814716	     -6.43519960	    -68.64561716	    -11.30828437	     31.37008345	     81.42311548	    -55.64293084	      4.90893237
      2.73529412	      0.43832098	    -15.69425336	    102.24717959	      0.27097616	      0.92995485	      0.57178582	      9.85244920	      1.39704486	     -2.53545824	      4.59858371	      0.08026043	     16.53281121	    -11.24855057	      0.00000000	     16.65480706	     -1.76621235	      4.35862103	     12.81906791	      0.22373494	     24.11290241	     -0.68279396	      0.00000000	     -0.02827736	     -1.31452010	     -1.26766518	     -0.05251389	     -1.74831173	     -1.34689426	     -0.04645688	     -3.19612417	     -1.34689426	     -0.03231820	     -3.19612417	     -1.10920704	     -0.02625836	     -2.68056939	     -1.02997796	     -0.01615768	     -2.03619163	     -0.95074889	     -0.20198236	    -14.87011427	     -7.05037345	      0.00000000	      0.00000000	      4.27159195	     -3.74510734	     -4.58858153	    -22.01453956	    -50.50724692	    -83.55668348	     35.22250535	     40.88221511	    -19.04666168	     13.70399576	     -3.71998839	    -66.14074834	    -13.43628324	     28.92736069	     79.90971885	    -55.45585259	     -3.87172303
      2.76470588	      0.57552310	    -15.55796405	    102.30509601	      0.27093019	      0.93046217	      0.57037657	      9.75897410	      1.52515929	     -3.74864409	      4.93851068	      0.08619327	     16.94134955	     -9.65185038	      0.00000000	     16.42266463	     -1.93619491	      4.29817113	     12.69131085	      0.22150516	     23.75608553	     -0.47017251	      0.00000000	     -0.00352908	     -1.31863177	     -1.15747880	     -0.00655386	     -1.75378025	     -1.22982122	     -0.00579793	     -3.20612128	     -1.22982122	     -0.00403339	     -3.20612128	     -1.01279395	     -0.00327711	     -2.68895390	     -0.94045152	     -0.00201652	     -2.04256061	     -0.86810910	     -0.02520788	    -14.91662627	     -6.43754982	      0.00000000	      0.00000000	      3.31886108	     -2.81270200	     -4.93926040	    -20.05123987	    -50.34900617	    -87.03733521	     34.51705001	     52.27710352	    -14.71181329	     15.86515125	     -3.50762018	    -63.86018036	    -18.75939922	     27.23899120	     79.24402349	    -53.04738413	    -14.51068083
